<svg width="81" height="11" viewBox="0 0 81 11" fill="none" xmlns="http://www.w3.org/2000/svg">
<path d="M0.65625 11V0.818182H5.05114C5.80682 0.818182 6.46804 0.955729 7.0348 1.23082C7.60156 1.50592 8.04238 1.90199 8.35724 2.41903C8.67211 2.93608 8.82955 3.55587 8.82955 4.27841C8.82955 5.00758 8.66714 5.6224 8.34233 6.12287C8.02083 6.62334 7.56842 7.00118 6.98509 7.25639C6.40507 7.5116 5.72727 7.6392 4.9517 7.6392H2.3267V5.49148H4.39489C4.7197 5.49148 4.99645 5.4517 5.22514 5.37216C5.45715 5.2893 5.63447 5.15838 5.7571 4.9794C5.88305 4.80043 5.94602 4.56676 5.94602 4.27841C5.94602 3.98674 5.88305 3.74976 5.7571 3.56747C5.63447 3.38187 5.45715 3.24598 5.22514 3.1598C4.99645 3.07031 4.7197 3.02557 4.39489 3.02557H3.42045V11H0.65625ZM6.62216 6.3267L9.16761 11H6.16477L3.67898 6.3267H6.62216ZM10.0078 11V0.818182H12.772V8.77273H16.8885V11H10.0078ZM18.0059 0.818182H21.4462L23.8127 6.58523H23.932L26.2985 0.818182H29.7388V11H27.0343V5.11364H26.9547L24.6877 10.9205H23.057L20.79 5.07386H20.7104V11H18.0059V0.818182ZM30.7704 3.04545V0.818182H39.6199V3.04545H36.5574V11H33.8329V3.04545H30.7704ZM40.6602 11V0.818182H43.4244V4.79545H47.0835V0.818182H49.8477V11H47.0835V7.02273H43.4244V11H40.6602ZM51.1602 11V0.818182H58.4982V3.04545H53.9244V4.79545H58.1204V7.02273H53.9244V8.77273H58.4783V11H51.1602ZM59.8691 0.818182H63.3095L65.676 6.58523H65.7953L68.1618 0.818182H71.6021V11H68.8975V5.11364H68.818L66.551 10.9205H64.9203L62.6532 5.07386H62.5737V11H59.8691V0.818182ZM72.9121 11V0.818182H80.2502V3.04545H75.6763V4.79545H79.8723V7.02273H75.6763V8.77273H80.2303V11H72.9121Z" fill="white"/>
</svg>
